# xmcd
#
# Track frame offsets: 
#        150
#        13990
#        30562
#        44707
#        60090
#        73575
#        95462
#        110722
#        124610
#        144115
#        167792
#        180635
#        193552
#        208460
#        221885
#        236525
#        254320
#
# Disc length: 3553 seconds
#
# Revision: 7
# Processed by: cddbd v1.5.2PL0 Copyright (c) Steve Scherf et al.
# Submitted via: ExactAudioCopy v0.99pb4
#
DISCID=fb0ddf11
DTITLE=David Allan Coe - 17 Greatest Hits
DYEAR=1985
DGENRE=Country
TTITLE0=She Used To Love Me A Lot
TTITLE1=Mona Lisa Lost Her Smile
TTITLE2=The Ride
TTITLE3=Now I Lay Me Down To Cheat
TTITLE4=Tennessee Whiskey
TTITLE5=If That Ain't Country
TTITLE6=Longhaired Redneck
TTITLE7=Jody Like A Melody
TTITLE8=Please Come To Boston
TTITLE9=You Never Even Called Me By My Name
TTITLE10=This Bottle (In My Hand)
TTITLE11=Would You Lay With Me (In A Field Of Stone)
TTITLE12=Jack Daniel's, If You Please
TTITLE13=Take This Job And Shove It
TTITLE14=Willie, Waylon And Me
TTITLE15=Pledging My Love
TTITLE16=Hank Williams Junior-Junior
EXTD=YEAR: 1985
EXTT0=
EXTT1=
EXTT2=
EXTT3=
EXTT4=
EXTT5=
EXTT6=
EXTT7=
EXTT8=
EXTT9=
EXTT10=
EXTT11=
EXTT12=
EXTT13=
EXTT14=
EXTT15=
EXTT16=
PLAYORDER=
